<svg width="43" height="43" viewBox="0 0 43 43" fill="none" xmlns="http://www.w3.org/2000/svg">
<path d="M21.1387 14.4366C17.2879 14.4366 14.1453 17.5791 14.1453 21.43C14.1453 25.2808 17.2879 28.4233 21.1387 28.4233C24.9895 28.4233 28.1321 25.2808 28.1321 21.43C28.1321 17.5791 24.9895 14.4366 21.1387 14.4366ZM42.1136 21.43C42.1136 18.534 42.1398 15.6642 41.9772 12.7735C41.8146 9.41582 41.0486 6.43589 38.5933 3.9806C36.1328 1.52006 33.1581 0.759343 29.8004 0.596706C26.9044 0.434069 24.0347 0.460301 21.1439 0.460301C18.2479 0.460301 15.3782 0.434069 12.4875 0.596706C9.1298 0.759343 6.14987 1.52531 3.69458 3.9806C1.23404 6.44114 0.473317 9.41582 0.31068 12.7735C0.148043 15.6695 0.174275 18.5392 0.174275 21.43C0.174275 24.3207 0.148043 27.1957 0.31068 30.0864C0.473317 33.4441 1.23928 36.424 3.69458 38.8793C6.15511 41.3399 9.1298 42.1006 12.4875 42.2632C15.3834 42.4259 18.2532 42.3996 21.1439 42.3996C24.0399 42.3996 26.9097 42.4259 29.8004 42.2632C33.1581 42.1006 36.138 41.3346 38.5933 38.8793C41.0538 36.4188 41.8146 33.4441 41.9772 30.0864C42.1451 27.1957 42.1136 24.3259 42.1136 21.43ZM21.1387 32.1902C15.1841 32.1902 10.3784 27.3846 10.3784 21.43C10.3784 15.4754 15.1841 10.6697 21.1387 10.6697C27.0933 10.6697 31.899 15.4754 31.899 21.43C31.899 27.3846 27.0933 32.1902 21.1387 32.1902ZM32.3396 12.742C30.9494 12.742 29.8266 11.6193 29.8266 10.229C29.8266 8.83872 30.9494 7.716 32.3396 7.716C33.7299 7.716 34.8526 8.83872 34.8526 10.229C34.8531 10.5591 34.7883 10.8861 34.6622 11.1912C34.5361 11.4963 34.351 11.7735 34.1175 12.0069C33.8841 12.2403 33.6069 12.4254 33.3018 12.5516C32.9967 12.6777 32.6698 12.7424 32.3396 12.742Z" fill="white"/>
</svg>
