<svg width="39" height="39" viewBox="0 0 39 39" fill="none" xmlns="http://www.w3.org/2000/svg">
<path fill-rule="evenodd" clip-rule="evenodd" d="M0.734795 3.53572C0.734795 2.69007 1.07073 1.87905 1.6687 1.28108C2.26667 0.683108 3.07769 0.347172 3.92335 0.347172H35.7082C36.1273 0.346488 36.5424 0.42847 36.9298 0.588424C37.3171 0.748379 37.6691 0.983164 37.9656 1.27934C38.2621 1.57551 38.4973 1.92726 38.6577 2.31445C38.818 2.70163 38.9005 3.11664 38.9002 3.53572V35.3206C38.9007 35.7398 38.8185 36.1549 38.6584 36.5423C38.4982 36.9296 38.2633 37.2816 37.967 37.5781C37.6706 37.8746 37.3188 38.1097 36.9315 38.2701C36.5442 38.4304 36.1291 38.5129 35.71 38.5126H3.92335C3.50447 38.5126 3.0897 38.4301 2.70274 38.2697C2.31577 38.1094 1.96419 37.8744 1.66809 37.5781C1.37198 37.2818 1.13715 36.9301 0.977011 36.5431C0.816873 36.156 0.734567 35.7412 0.734795 35.3223V3.53572ZM15.8414 14.8986H21.0093V17.4939C21.7553 16.0019 23.6636 14.6592 26.5312 14.6592C32.0287 14.6592 33.3316 17.6309 33.3316 23.0834V33.1833H27.7681V24.3255C27.7681 21.2202 27.0221 19.4681 25.1277 19.4681C22.4995 19.4681 21.4066 21.3573 21.4066 24.3255V33.1833H15.8414V14.8986ZM6.30001 32.9457H11.8652V14.6592H6.30001V32.9439V32.9457ZM12.6615 8.695C12.672 9.1715 12.5872 9.6453 12.4121 10.0886C12.237 10.5319 11.9751 10.9357 11.6418 11.2764C11.3086 11.6171 10.9106 11.8878 10.4712 12.0727C10.0319 12.2575 9.5601 12.3527 9.08349 12.3527C8.60687 12.3527 8.13506 12.2575 7.69573 12.0727C7.25641 11.8878 6.85842 11.6171 6.52513 11.2764C6.19185 10.9357 5.92997 10.5319 5.75487 10.0886C5.57977 9.6453 5.49498 9.1715 5.50548 8.695C5.52607 7.75969 5.91209 6.86963 6.58085 6.21543C7.24961 5.56123 8.14796 5.19491 9.08349 5.19491C10.019 5.19491 10.9174 5.56123 11.5861 6.21543C12.2549 6.86963 12.6409 7.75969 12.6615 8.695Z" fill="white"/>
</svg>
