<svg width="42" height="43" viewBox="0 0 42 43" fill="none" xmlns="http://www.w3.org/2000/svg">
<rect y="0.484863" width="42" height="42" rx="5" fill="white"/>
<path d="M41.3753 9.12463C39.914 9.77213 38.3443 10.2096 36.694 10.4074C38.3968 9.38851 39.6707 7.78494 40.278 5.89588C38.6782 6.84611 36.9274 7.51497 35.1015 7.87338C33.8737 6.56239 32.2474 5.69345 30.4751 5.40146C28.7028 5.10946 26.8837 5.41076 25.3002 6.25857C23.7167 7.10638 22.4574 8.45326 21.7178 10.0901C20.9782 11.727 20.7997 13.5622 21.21 15.3109C17.9685 15.1481 14.7974 14.3056 11.9025 12.838C9.00764 11.3703 6.45373 9.31041 4.4065 6.79188C3.7065 7.99938 3.30401 9.39938 3.30401 10.8904C3.30322 12.2326 3.63376 13.5543 4.26629 14.7382C4.89882 15.922 5.81379 16.9314 6.93 17.6769C5.63549 17.6357 4.36953 17.2859 3.23751 16.6566V16.7616C3.23737 18.6442 3.88856 20.4688 5.08058 21.9259C6.27259 23.383 7.932 24.3828 9.77725 24.7556C8.57638 25.0806 7.31735 25.1285 6.09525 24.8956C6.61588 26.5154 7.63 27.9319 8.99565 28.9467C10.3613 29.9616 12.0101 30.5239 13.7113 30.5551C10.8235 32.8221 7.25706 34.0518 3.58576 34.0464C2.93542 34.0466 2.28564 34.0086 1.63976 33.9326C5.36634 36.3287 9.70435 37.6003 14.1348 37.5954C29.1323 37.5954 37.331 25.1739 37.331 14.4009C37.331 14.0509 37.3223 13.6974 37.3065 13.3474C38.9013 12.1941 40.2778 10.7659 41.3718 9.12988L41.3753 9.12463V9.12463Z" fill="#FE0F65"/>
</svg>
