<svg width="43" height="43" viewBox="0 0 43 43" fill="none" xmlns="http://www.w3.org/2000/svg">
<g clip-path="url(#clip0_1_55)">
<path d="M41.249 11.872C41.0112 11.0237 40.5479 10.2556 39.9085 9.6495C39.251 9.02476 38.4451 8.57786 37.567 8.351C34.2805 7.48475 21.1135 7.48475 21.1135 7.48475C15.6243 7.4223 10.1365 7.69698 4.68099 8.30725C3.80283 8.55088 2.99848 9.00775 2.33949 9.63725C1.69199 10.2603 1.22299 11.0285 0.977994 11.8703C0.389457 15.0408 0.103505 18.2601 0.123994 21.4848C0.102994 24.7065 0.388244 27.9248 0.977994 31.0993C1.21774 31.9375 1.68499 32.7023 2.33424 33.32C2.98349 33.9378 3.79199 34.384 4.68099 34.6203C8.01124 35.4848 21.1135 35.4848 21.1135 35.4848C26.6097 35.5473 32.1045 35.2726 37.567 34.6623C38.4451 34.4354 39.251 33.9885 39.9085 33.3638C40.5477 32.7578 41.0104 31.9896 41.2472 31.1413C41.8511 27.9719 42.1448 24.7513 42.124 21.525C42.1694 18.2851 41.8762 15.0492 41.249 11.8703V11.872ZM16.9275 27.4768V15.4945L27.8825 21.4865L16.9275 27.4768Z" fill="white"/>
</g>
<defs>
<clipPath id="clip0_1_55">
<rect width="42" height="42" fill="white" transform="translate(0.124088 0.484863)"/>
</clipPath>
</defs>
</svg>
